<?xml version="1.0" standalone="no"?>
<!DOCTYPE svg PUBLIC "-//W3C//DTD SVG 20010904//EN"
 "http://www.w3.org/TR/2001/REC-SVG-20010904/DTD/svg10.dtd">
<svg version="1.0" xmlns="http://www.w3.org/2000/svg"
 width="848.000000pt" height="861.000000pt" viewBox="0 0 848.000000 861.000000"
 preserveAspectRatio="xMidYMid meet">

<g transform="translate(0.000000,861.000000) scale(0.100000,-0.100000)"
fill="#000000" stroke="none">
<path d="M2240 7186 c-283 -61 -493 -251 -580 -524 -28 -86 -28 -87 -71 -101
-41 -14 -43 -13 -58 9 -84 126 -215 222 -363 265 -78 22 -247 23 -324 0 -141
-41 -287 -148 -366 -269 -49 -76 -88 -199 -95 -301 -11 -170 56 -344 181 -470
72 -73 166 -133 243 -156 41 -12 43 -14 43 -51 l0 -38 -52 0 c-35 0 -79 10
-128 30 -52 20 -93 29 -132 30 -32 0 -58 -2 -58 -5 0 -2 36 -79 80 -171 74
-154 81 -165 102 -159 13 4 35 20 50 36 24 25 35 29 83 29 l55 0 0 -390 0
-390 101 0 102 0 -7 -67 c-9 -88 -16 -113 -30 -113 -6 0 -112 -20 -236 -44
l-225 -44 -47 24 c-26 13 -58 24 -70 24 -28 0 -356 -65 -363 -71 -7 -7 16
-193 25 -202 4 -5 90 8 191 27 l183 35 45 45 46 45 255 55 c139 31 257 59 262
64 4 4 15 54 26 112 l18 105 952 3 952 2 0 650 0 650 -81 0 -81 0 52 58 c142
159 209 327 210 525 0 121 -23 214 -81 333 -95 195 -265 337 -470 394 -96 26
-255 34 -339 16z m-484 -1168 c20 -29 60 -76 87 -105 l50 -53 -191 0 -190 0
48 93 c47 92 47 92 96 104 27 6 52 12 56 12 3 1 23 -23 44 -51z m1092 -1214
c27 -18 30 -69 5 -96 -23 -26 -78 -24 -97 4 -22 31 -20 58 6 85 25 27 54 29
86 7z"/>
<path d="M3535 5820 l-180 -110 -152 0 -153 0 0 -295 0 -295 154 0 154 0 181
-110 c100 -60 183 -110 186 -110 3 0 5 232 5 515 0 283 -3 515 -7 515 -5 0
-89 -50 -188 -110z"/>
<path d="M7532 5805 c-23 -7 -50 -19 -59 -27 -28 -22 -53 -91 -53 -144 0 -49
0 -50 -46 -72 -43 -21 -45 -24 -42 -60 3 -36 4 -37 46 -40 l42 -3 0 -230 0
-229 80 0 80 0 0 230 0 229 68 3 67 3 3 58 3 57 -71 0 -70 0 0 38 c0 58 25 76
95 69 l55 -6 15 37 c33 77 32 79 -25 91 -66 14 -134 13 -188 -4z"/>
<path d="M4690 5790 c-12 -12 -20 -33 -20 -55 0 -50 29 -75 85 -75 54 0 85 28
85 77 0 48 -29 73 -85 73 -32 0 -51 -6 -65 -20z"/>
<path d="M4187 5750 c-137 -53 -217 -192 -217 -375 0 -258 142 -399 383 -382
45 3 100 12 122 20 l40 14 3 66 c2 37 -1 67 -5 67 -4 0 -30 -7 -58 -16 -68
-20 -172 -21 -210 -2 -74 39 -105 108 -105 232 0 93 11 139 43 186 55 82 135
100 250 56 l68 -25 8 22 c5 12 16 39 25 61 9 21 13 42 11 47 -3 5 -35 18 -71
29 -87 26 -219 27 -287 0z"/>
<path d="M6350 5380 l0 -380 80 0 80 0 0 380 0 380 -80 0 -80 0 0 -380z"/>
<path d="M5283 5589 c-51 -9 -79 -23 -115 -57 l-27 -25 -8 34 c-9 34 -10 34
-71 37 l-62 3 0 -291 0 -290 80 0 80 0 0 173 c0 94 5 188 10 208 29 104 172
120 199 21 6 -20 11 -119 11 -219 l0 -183 80 0 80 0 0 208 c0 118 -5 224 -11
247 -29 105 -123 156 -246 134z"/>
<path d="M5893 5589 c-138 -18 -223 -131 -223 -299 0 -134 52 -226 152 -271
46 -21 68 -24 163 -24 80 1 120 5 148 17 37 17 37 17 37 79 0 54 -2 60 -17 54
-43 -19 -121 -35 -166 -35 -87 0 -139 37 -153 110 l-6 30 188 2 189 3 -2 80
c-4 183 -120 278 -310 254z m120 -129 c23 -18 53 -87 43 -97 -2 -2 -53 -2
-114 -1 l-110 3 14 40 c7 22 23 48 35 58 30 24 99 23 132 -3z"/>
<path d="M6973 5589 c-51 -9 -79 -23 -115 -57 l-27 -25 -8 34 c-9 34 -10 34
-71 37 l-62 3 0 -291 0 -290 80 0 80 0 0 173 c0 94 5 188 10 208 29 104 172
120 199 21 6 -20 11 -119 11 -219 l0 -183 80 0 80 0 0 208 c0 118 -5 224 -11
247 -29 105 -123 156 -246 134z"/>
<path d="M8005 5589 c-68 -9 -97 -22 -143 -64 -93 -84 -117 -267 -52 -396 57
-112 207 -166 346 -124 67 20 117 64 151 133 25 50 28 68 28 152 0 77 -5 104
-23 145 -54 118 -163 173 -307 154z m100 -133 c40 -17 60 -52 69 -121 17 -126
-32 -215 -117 -215 -83 0 -117 51 -117 175 0 95 18 141 62 160 42 18 61 18
103 1z"/>
<path d="M4670 5290 l0 -290 80 0 80 0 0 290 0 290 -80 0 -80 0 0 -290z"/>
<path d="M7592 4706 c-51 -54 -120 -87 -227 -112 -132 -31 -405 -25 -740 15
-628 75 -978 102 -1335 102 -270 1 -396 -11 -517 -49 -68 -21 -153 -67 -153
-82 0 -13 -4 -14 78 14 172 59 194 61 627 61 453 0 548 -7 1140 -82 299 -38
398 -46 582 -50 255 -6 340 6 458 61 109 51 200 154 145 163 -8 2 -34 -17 -58
-41z"/>
<path d="M4875 4613 c-57 -13 -145 -46 -145 -55 0 -6 8 -7 18 -3 22 9 125 32
175 40 20 3 37 10 37 15 0 10 -48 12 -85 3z"/>
<path d="M1430 4380 l0 -130 30 0 c17 0 30 -3 30 -7 1 -5 -66 -342 -147 -750
-125 -630 -150 -743 -165 -743 -43 0 -48 -10 -48 -86 0 -52 4 -75 14 -81 12
-7 -24 -200 -206 -1106 -121 -605 -218 -1100 -216 -1102 2 -2 23 -8 46 -14 32
-7 44 -6 47 2 4 12 550 2027 583 2154 16 60 17 62 52 65 l35 3 3 69 c2 39 -2
74 -8 80 -5 5 -10 19 -10 30 0 22 265 1009 280 1041 8 18 9 18 9 -5 1 -66 222
-3639 227 -3667 5 -33 5 -33 64 -33 l60 0 0 63 c0 59 66 1366 110 2187 11 206
31 600 45 875 36 724 37 744 46 715 4 -14 76 -279 161 -590 136 -503 153 -576
158 -665 5 -92 7 -100 26 -103 23 -3 3 66 505 -1784 125 -463 133 -488 155
-488 12 0 34 4 47 9 l24 9 -223 1119 c-123 615 -224 1121 -224 1125 0 5 11 8
25 8 25 0 25 1 25 80 l0 80 -39 0 c-22 0 -43 4 -46 10 -3 5 -71 335 -150 732
-80 398 -147 733 -150 746 -5 19 -1 22 25 22 l30 0 0 130 0 130 -615 0 -615 0
0 -130z m298 -200 c2 -58 -19 -143 -182 -743 -101 -373 -186 -680 -187 -682
-10 -8 -54 -8 -58 0 -2 6 63 344 145 753 l149 743 65 -3 65 -3 3 -65z m468
-12 c-4 -46 -20 -353 -36 -683 -16 -330 -32 -635 -36 -677 l-6 -78 -89 0 c-78
0 -89 2 -89 18 0 9 -18 307 -40 662 -43 694 -48 808 -37 828 6 9 52 12 173 12
l166 0 -6 -82z m309 60 c6 -24 295 -1471 295 -1475 0 -2 -16 -3 -35 -3 -19 0
-35 3 -35 6 0 3 -90 338 -200 745 -110 406 -200 741 -200 744 0 3 38 5 85 5
79 0 85 -1 90 -22z m-1195 -1654 c0 -14 -174 -653 -177 -650 -2 1 21 126 51
277 82 410 74 379 102 379 13 0 24 -3 24 -6z m1595 -334 c37 -188 66 -343 63
-345 -2 -2 -44 146 -92 328 -49 183 -91 338 -94 345 -3 8 6 12 26 12 l29 0 68
-340z m-795 318 c2 -59 -64 -1307 -69 -1321 -4 -11 -24 264 -44 610 -21 345
-41 649 -44 676 l-6 47 82 0 c58 0 81 -4 81 -12z m867 -700 c-3 -8 -6 -5 -6 6
-1 11 2 17 5 13 3 -3 4 -12 1 -19z"/>
</g>
</svg>
